<svg xmlns="http://www.w3.org/2000/svg" width="22" height="22" viewBox="0 0 22 22">
  <g id="Group_4930" data-name="Group 4930" transform="translate(-774.5 -315.126)">
    <path id="Path" d="M11,22A11,11,0,1,1,22,11,11,11,0,0,1,11,22Z" transform="translate(774.5 315.126)" fill="rgba(29,142,251,0.25)"/>
    <path id="Path-2" data-name="Path" d="M12.922,1.124,4.385,9.432a.659.659,0,0,1-.931,0L.193,6.315a.659.659,0,0,1,0-.931h0a.659.659,0,0,1,.931,0l2.8,2.653L11.991.193a.659.659,0,0,1,.931,0h0a.659.659,0,0,1,0,.931Z" transform="translate(779.393 322.083)" fill="#1d8efb" stroke="#1d8efb" stroke-width="0.3"/>
  </g>
</svg>
