<svg xmlns="http://www.w3.org/2000/svg" width="22.962" height="20.5" viewBox="0 0 22.962 20.5"><g transform="translate(0.25 -21.15)"><g transform="translate(0 21.4)"><path d="M19.116,41.4a.447.447,0,0,0,.454-.443V32.751h1.763a6.068,6.068,0,0,1,.676,0,.443.443,0,1,0,0-.885H18.057l-.481-2.6a1.308,1.308,0,0,0-1.293-1.055h-.532l-.307-5.054A1.9,1.9,0,0,0,13.532,21.4h-4.6a1.9,1.9,0,0,0-1.912,1.758l-.307,5.054H6.184a1.3,1.3,0,0,0-1.293,1.055l-.481,2.6H.454a.443.443,0,1,0,0,.885h2.4v8.207a.447.447,0,0,0,.454.443.464.464,0,0,0,.484-.443l-.03-8.207h14.9l.018,8.207S18.728,41.393,19.116,41.4ZM16.278,29.1a.41.41,0,0,1,.4.326l.454,2.442h-1.16l-.17-2.768ZM7.931,23.211a.994.994,0,0,1,1-.921h4.593a1,1,0,0,1,1,.921l.532,8.654H7.4Zm-2.15,6.212a.406.406,0,0,1,.4-.326h.477l-.17,2.768H5.331ZM2.324,31.865l1.255.451,1.207.434H17.676l2.462-.885Z" transform="translate(0 -21.4)" fill="#1d8efb" stroke="#1d8efb" stroke-width="0.5"/><path d="M150.535,341.854a.452.452,0,0,0-.454-.454h-8.627a.454.454,0,1,0,0,.908h3.86v4.465a.454.454,0,0,0,.908,0v-4.465h3.86A.452.452,0,0,0,150.535,341.854Z" transform="translate(-134.536 -327.231)" fill="#1d8efb" stroke="#1d8efb" stroke-width="0.5"/></g></g></svg>