<svg xmlns="http://www.w3.org/2000/svg" width="36.211" height="33.664" viewBox="0 0 36.211 33.664"><g transform="translate(-0.999 -504.001)"><path d="M22.005,23.076a.917.917,0,0,1-.617-.25L17.37,19.141H4.451A4.426,4.426,0,0,1,0,14.75V4.437A4.4,4.4,0,0,1,1.312,1.3,4.426,4.426,0,0,1,4.451,0h8.992V1.832H4.451A2.607,2.607,0,0,0,2.607,2.6a2.567,2.567,0,0,0-.775,1.839V14.75a2.592,2.592,0,0,0,2.619,2.558H17.727a.911.911,0,0,1,.61.258l2.739,2.525V11.384a.916.916,0,1,1,1.832,0V22.169a.9.9,0,0,1-.539.833A.874.874,0,0,1,22.005,23.076ZM10.122,10.282h-.076a.916.916,0,0,1,0-1.832h.076a.916.916,0,1,1,0,1.832Zm-3.183,0H6.863a.916.916,0,0,1,0-1.832h.076a.916.916,0,0,1,0,1.832Z" transform="translate(0.999 514.589)" fill="#80c44e"/><path d="M1.171,23.05A.891.891,0,0,1,.8,22.972a.933.933,0,0,1-.565-.837V12.42H0V10.588H.235V4.4A4.439,4.439,0,0,1,4.7,0H18.741a4.383,4.383,0,0,1,4.4,4.4V14.716a4.41,4.41,0,0,1-1.283,3.127,4.357,4.357,0,0,1-3.116,1.3H6.858c-.232,0-.425,0-.583,0h-.04l-.21,0a1.729,1.729,0,0,0-.181.006c-.071.049-.241.2-.406.354l-.041.037-.086.081-.013.012-.028.023-.113.1L1.8,22.811A.922.922,0,0,1,1.171,23.05ZM4.7,1.832A2.605,2.605,0,0,0,2.065,4.4V20.057l1.842-1.664c.042-.036.084-.071.125-.1l.009-.008c.038-.031.074-.062.112-.1l.006-.005c.8-.733,1.031-.877,1.935-.877.07,0,.143,0,.219,0,.147,0,.327,0,.545,0H18.741a2.543,2.543,0,0,0,1.822-.76,2.594,2.594,0,0,0,.746-1.832V4.4a2.553,2.553,0,0,0-2.568-2.571Zm6.816,12.659a.9.9,0,0,1-.9-.913v-.006a.9.9,0,0,1,.9-.917.918.918,0,0,1,0,1.836ZM11.5,11.809h-.01a.9.9,0,0,1-.915-.9,2.71,2.71,0,0,1,1.28-2.057l.019-.017c.457-.384.755-.655.755-.9a.906.906,0,1,0-1.813,0,.916.916,0,0,1-1.832,0,2.739,2.739,0,0,1,5.478,0,3.039,3.039,0,0,1-1.4,2.291l-.011.009-.014.013c-.22.182-.63.522-.628.651a.9.9,0,0,1-.909.911Z" transform="translate(14.069 504.001)" fill="#188df8"/></g></svg>