<svg xmlns="http://www.w3.org/2000/svg" width="23.132" height="20.329" viewBox="0 0 23.132 20.329"><g transform="translate(0.171 0.179)"><path d="M27.022,28.984H24.973v-8.69h1.159a1.63,1.63,0,0,0,1.558-1.125,1.661,1.661,0,0,0-.561-1.877l-.044-.031L17.3,10.78a1.655,1.655,0,0,0-1.831,0L5.692,17.261l-.044.031a1.662,1.662,0,0,0-.561,1.877,1.63,1.63,0,0,0,1.558,1.125H7.8v8.69H5.754a.76.76,0,1,0,0,1.519H27.022a.76.76,0,0,0,0-1.519Zm-3.568,0h-3.7v-8.69h3.7v8.69Zm-5.217-8.69v8.69h-3.7v-8.69ZM6.525,18.679a.15.15,0,0,1,.037-.173l9.75-6.46a.134.134,0,0,1,.153,0l9.75,6.46a.151.151,0,0,1,.037.173c-.032.1-.093.1-.12.1H6.645C6.619,18.775,6.558,18.775,6.525,18.679Zm2.8,1.615h3.7v8.69h-3.7Z" transform="translate(-4.993 -10.504)" fill="#1d8efb" stroke="#1d8efb" stroke-width="0.3"/></g></svg>