<svg xmlns="http://www.w3.org/2000/svg" width="45.467" height="18" viewBox="0 0 45.467 18"><g transform="translate(-284.552 -280.094)"><path d="M561.864,291.757c.272.122.627.262.963.437a3.906,3.906,0,0,1,2.1,2.745,5.041,5.041,0,0,1-.267,2.965,3.85,3.85,0,0,1-1.643,1.913,5.748,5.748,0,0,1-2.7.849c-1.73.084-3.464.119-5.2.158-.87.02-1.742.006-2.613,0-.458,0-.6-.147-.6-.6q0-7.953,0-15.906c0-.5.11-.611.62-.611,2.007,0,4.015-.016,6.022.006a7.254,7.254,0,0,1,3.51.823,3.819,3.819,0,0,1,1.973,2.728,3.881,3.881,0,0,1-.887,3.475A8.67,8.67,0,0,1,561.864,291.757Zm-6.15,6.107c1.243-.075,2.459-.087,3.658-.239a1.838,1.838,0,0,0,1.634-1.666,1.967,1.967,0,0,0-1.442-2.33,14.807,14.807,0,0,0-3.851-.238Zm0-7.27c1.085-.075,2.138-.084,3.169-.237a1.546,1.546,0,0,0,1.354-1.578,1.624,1.624,0,0,0-1.2-1.816,16.194,16.194,0,0,0-3.328-.167Z" transform="translate(-235.018 -3.167)" fill="#1e4697"/><path d="M292.965,283.726c.53,0,1.06-.007,1.59,0a.719.719,0,0,1,.754.519c1.022,2.841,2.063,5.674,3.1,8.509.907,2.476,1.822,4.95,2.724,7.428.2.547.1.663-.481.663-1,0-1.994-.008-2.991,0a.737.737,0,0,1-.773-.569c-.35-1.04-.71-2.077-1.042-3.122a.3.3,0,0,0-.337-.254q-2.707.006-5.414,0c-.209,0-.274.092-.331.265-.346,1.054-.715,2.1-1.048,3.16a.679.679,0,0,1-.718.516c-1,.011-1.994.008-2.991,0-.436,0-.542-.153-.39-.558.741-1.986,1.49-3.969,2.232-5.954q.894-2.389,1.778-4.782c.642-1.733,1.279-3.469,1.926-5.2a.807.807,0,0,1,.935-.626Zm-.145,3.891-2.047,6.254h4.052Z" transform="translate(0 -3.19)" fill="#1e4697"/><path d="M420.34,289.11a5.333,5.333,0,0,0,3.621,5.082,4.809,4.809,0,0,0,4.926-1.105c.3-.262.5-.278.777,0q.852.834,1.687,1.687a.532.532,0,0,1-.018.869,8.957,8.957,0,0,1-8.724,2.076,9.014,9.014,0,0,1-6.187-7.048,8.831,8.831,0,0,1,1.859-7.252,8.413,8.413,0,0,1,5.138-3.1,8.912,8.912,0,0,1,1.807-.214,8.817,8.817,0,0,1,5.613,2.034c.123.1.251.2.378.3.361.286.385.544.042.92-.527.578-1.086,1.127-1.66,1.659a.568.568,0,0,1-.808,0,5.074,5.074,0,0,0-2.549-1.2,4.871,4.871,0,0,0-3.593.845A5.387,5.387,0,0,0,420.34,289.11Z" transform="translate(-115.799)" fill="#1e4697"/><path d="M474.093,332.15a3.07,3.07,0,1,1-3.072-3.118A3.019,3.019,0,0,1,474.093,332.15Z" transform="translate(-161.218 -43.019)" fill="#22aae2"/></g></svg>