<svg xmlns="http://www.w3.org/2000/svg" width="79" height="79" viewBox="0 0 79 79"><g transform="translate(1 1.5)"><circle cx="38" cy="38" r="38" transform="translate(0.5)" fill="none" stroke="#80c44e" stroke-linecap="round" stroke-miterlimit="10" stroke-width="3" stroke-dasharray="0 11"/><circle cx="32.662" cy="32.662" r="32.662" transform="translate(5.457 5.338)" fill="#80c44e"/><g transform="translate(13.722 18.988)"><path d="M32.211,49.712a.894.894,0,0,0-1.251-.153.884.884,0,0,0-.154,1.245l2.221,2.84H17.684A3.568,3.568,0,0,1,14.12,50.1V43.911H12.331V50.1a5.353,5.353,0,0,0,5.353,5.327H33.037l-2.246,2.87a.884.884,0,0,0,.154,1.245.893.893,0,0,0,1.251-.153L35.55,55.1a.884.884,0,0,0,.01-1.1Z" transform="translate(0 -26.766)" fill="#fff" stroke="#fff" stroke-width="0.3" fill-rule="evenodd"/><path d="M34.178,10.829A5.35,5.35,0,0,0,30.4,9.265H15.045l2.245-2.87a.884.884,0,0,0-.154-1.245.894.894,0,0,0-1.251.153L12.531,9.591a.884.884,0,0,0-.01,1.1l3.35,4.282a.894.894,0,0,0,1.251.153.884.884,0,0,0,.154-1.245l-2.221-2.84H30.4a3.567,3.567,0,0,1,3.563,3.546v6.187h1.79V14.592A5.3,5.3,0,0,0,34.178,10.829Z" transform="translate(-0.001 0)" fill="#fff" stroke="#fff" stroke-width="0.3" fill-rule="evenodd"/></g></g></svg>