<svg xmlns="http://www.w3.org/2000/svg" width="25.83" height="17.45" viewBox="0 0 25.83 17.45"><path d="M5.6,18.8h20.95a2.217,2.217,0,0,1,.843.163,2.128,2.128,0,0,1,.707.463,2.446,2.446,0,0,1,.463.707,2.217,2.217,0,0,1,.163.843v12.57a2.217,2.217,0,0,1-.163.843,2.128,2.128,0,0,1-.463.707,1.87,1.87,0,0,1-.707.463,2.13,2.13,0,0,1-.843.19H5.6a2.243,2.243,0,0,1-.843-.19,2.128,2.128,0,0,1-.707-.463,1.841,1.841,0,0,1-.49-.707,2.12,2.12,0,0,1-.163-.843V21a2.217,2.217,0,0,1,.163-.843,2.071,2.071,0,0,1,.49-.707,1.779,1.779,0,0,1,.707-.463A1.823,1.823,0,0,1,5.6,18.8ZM23.942,30.635a.925.925,0,1,1,0,1.85.935.935,0,0,1-.925-.925.917.917,0,0,1,.925-.925Zm-2.923,0a.925.925,0,0,1,0,1.85.935.935,0,0,1-.925-.925.917.917,0,0,1,.925-.925Zm-2.956,0a.917.917,0,0,1,.925.925.925.925,0,0,1-1.85,0,.917.917,0,0,1,.925-.925Zm-13.249-7.1h22.5V21a.978.978,0,0,0-.054-.3.548.548,0,0,0-.19-.245.772.772,0,0,0-.245-.163.978.978,0,0,0-.3-.054H5.577a1.157,1.157,0,0,0-.3.054,1.278,1.278,0,0,0-.245.163.642.642,0,0,0-.163.245.538.538,0,0,0-.054.3v2.53Zm22.5,1.415H4.815v8.625a.978.978,0,0,0,.054.3.75.75,0,0,0,.408.408.978.978,0,0,0,.3.054h20.95a.978.978,0,0,0,.3-.054.489.489,0,0,0,.245-.163,1.5,1.5,0,0,0,.19-.245.978.978,0,0,0,.054-.3Z" transform="translate(-3.15 -18.549)" fill="#1d8efb" stroke="#1d8efb" stroke-width="0.5"/></svg>