<svg xmlns="http://www.w3.org/2000/svg" width="18" height="18" viewBox="0 0 18 18"><g transform="translate(-0.001)"><path d="M9,0a9,9,0,1,0,9,9A9,9,0,0,0,9,0Zm4.753,13.132-.721.721a1.328,1.328,0,0,1-.517.209,8.5,8.5,0,0,1-8.577-8.6A1.341,1.341,0,0,1,4.15,4.97L4.87,4.25A1.2,1.2,0,0,1,6,3.984l.152.051a1.424,1.424,0,0,1,.823.87l.362,1.33a1.3,1.3,0,0,1-.3,1.139l-.481.481a5.111,5.111,0,0,0,3.594,3.595l.481-.481a1.3,1.3,0,0,1,1.14-.3l1.33.364a1.425,1.425,0,0,1,.87.822l.051.154A1.205,1.205,0,0,1,13.754,13.132Z" fill="#80c44e"/></g></svg>