<svg xmlns="http://www.w3.org/2000/svg" width="32.215" height="32.215" viewBox="0 0 32.215 32.215"><path d="M16.107,0A16.107,16.107,0,1,0,32.215,16.107,16.155,16.155,0,0,0,16.107,0Zm0,26.175a2.013,2.013,0,0,1,0-4.027,2.013,2.013,0,0,1,0,4.027Zm3.02-9.262c-1.007.6-1.007.805-1.007,1.208v2.013H14.094V18.121a5.264,5.264,0,0,1,2.819-4.631c1.007-.6,1.208-.805,1.208-1.409a1.9,1.9,0,0,0-2.013-2.013A2.114,2.114,0,0,0,14.3,11.074l-1.007,1.812L9.866,10.873,10.873,9.06a6.008,6.008,0,0,1,5.235-3.02,5.932,5.932,0,0,1,6.04,6.04C22.148,14.9,20.336,16.107,19.128,16.913Z" fill="#1592e6"/></svg>